PathFileType	4	(X/Y/Z)	C:/Users/opensim2020/Desktop/walking_exp_matlab/subject01_walking05_straight_03.trc	
DataRate	CameraRate	NumFrames	NumMarkers	Units	OrigDataRate	OrigDataStartFrame	OrigNumFrames	
100.00	100.00	6	43	mm	100.00	2246	223	
Frame#	Time	LFHD			RFHD			LBHD			RBHD			C7			T10			CLAV			STRN			RBAK			LSHO			LUPA			LELB			LFRM			LWRA			LWRB			LFIN			RSHO			RUPA			RELB			RFRM			RWRA			RWRB			RFIN			LASI			RASI			LPSI			RPSI			LTHI			LKNE			LTIB			LANK			LHEE			LTOE			RTHI			RKNE			RTIB			RANK			RHEE			RTOE			*39			*40			*41			*42			
		X1	Y1	Z1	X2	Y2	Z2	X3	Y3	Z3	X4	Y4	Z4	X5	Y5	Z5	X6	Y6	Z6	X7	Y7	Z7	X8	Y8	Z8	X9	Y9	Z9	X10	Y10	Z10	X11	Y11	Z11	X12	Y12	Z12	X13	Y13	Z13	X14	Y14	Z14	X15	Y15	Z15	X16	Y16	Z16	X17	Y17	Z17	X18	Y18	Z18	X19	Y19	Z19	X20	Y20	Z20	X21	Y21	Z21	X22	Y22	Z22	X23	Y23	Z23	X24	Y24	Z24	X25	Y25	Z25	X26	Y26	Z26	X27	Y27	Z27	X28	Y28	Z28	X29	Y29	Z29	X30	Y30	Z30	X31	Y31	Z31	X32	Y32	Z32	X33	Y33	Z33	X34	Y34	Z34	X35	Y35	Z35	X36	Y36	Z36	X37	Y37	Z37	X38	Y38	Z38	X39	Y39	Z39	X40	Y40	Z40	X41	Y41	Z41	X42	Y42	Z42	X43	Y43	Z43	

168	1.670	-1033.82312	330.74271	1682.11853	-921.63690	353.81964	1689.84766	-1015.78033	223.14748	1620.79639	-896.53546	244.61804	1627.43005	-970.89386	205.78763	1436.86682	-967.54059	175.74500	1144.01563	-988.43530	348.91647	1372.49756	-1003.84283	394.17987	1218.00452	-891.13281	162.77557	1239.58130	-1139.94641	269.27631	1407.97058	-1223.42432	216.19446	1228.75110	-1227.11145	194.84737	1079.23132	-1255.45532	228.72423	970.19891	-1245.07996	306.06281	853.03564	-1263.53369	249.07991	849.46899	-1275.75488	293.10400	777.51599	-831.54498	298.44931	1396.32080	-727.07495	272.52545	1192.05750	-723.87921	292.74915	1068.01819	-695.62390	349.73630	961.03198	-718.50818	456.98407	870.33972	-678.08972	416.53311	859.49219	-681.40710	473.62332	795.79413	-1095.77234	340.82504	941.42731	-878.98163	357.39642	938.76367	-1032.97607	159.42776	949.29584	-888.59149	170.38486	954.55292	-1169.54492	396.24744	627.88629	-1160.61267	420.02689	496.15103	-1168.41943	317.91959	339.73047	-1121.96143	222.90863	142.21904	-1061.49170	180.64406	122.01373	-1153.41187	337.66437	59.29154	-830.88092	291.31851	605.35577	-861.71307	287.71658	447.27734	-857.64948	226.50037	280.69669	-915.01910	192.05058	78.33555	-966.28949	141.76717	42.94220	-920.52118	332.27045	36.61054	-942.56824	334.77255	1721.38293	-3101.93921	1973.15955	1023.29828	-3140.62427	2012.52649	1021.84821			 
169	1.680	-1034.13953	339.13599	1681.86206	-921.79468	362.17300	1689.67773	-1015.86377	231.69914	1620.27136	-896.65839	253.09235	1627.05847	-970.76105	214.52867	1436.61108	-966.97656	184.63565	1143.64929	-988.34534	357.62360	1372.11511	-1003.37946	401.94550	1217.28223	-890.33771	171.52628	1239.62097	-1139.81299	277.84888	1407.39258	-1222.64868	223.43097	1228.16980	-1225.62830	200.80685	1079.10864	-1254.02258	232.50963	969.60907	-1244.08545	307.41336	850.72650	-1262.28857	250.15936	848.53741	-1274.16870	292.52585	775.23303	-831.44092	307.39917	1396.27832	-726.25366	281.91809	1192.27844	-722.82397	303.17090	1068.34070	-694.77081	361.94208	962.03870	-717.92169	470.79477	873.42706	-677.66522	430.59375	861.67560	-680.93726	488.96463	799.27295	-1095.31470	349.11096	941.41913	-878.48621	365.37131	938.06012	-1032.94739	167.59851	949.17004	-888.63605	178.00406	954.22217	-1169.46619	406.50079	628.84912	-1159.72095	431.24292	497.07529	-1168.10229	335.42676	336.01297	-1121.70593	250.07416	133.82130	-1060.95642	209.50645	111.18478	-1154.51233	368.94992	57.32821	-830.91534	296.38934	604.99603	-861.40857	290.74298	446.71878	-857.71881	227.83920	281.02719	-915.02478	192.54691	78.78242	-966.50836	141.98851	43.76500	-920.55383	332.44974	36.49942	-942.70215	343.08954	1721.16577	-3101.87500	1973.08936	1023.47351	-3140.59277	2012.51233	1021.87427			 
170	1.690	-1034.21570	347.58572	1681.45154	-921.97491	370.54599	1689.49121	-1016.06305	240.25648	1619.75317	-896.85992	261.62244	1626.67981	-970.65692	223.32106	1436.29871	-966.37585	192.65804	1143.54651	-988.36499	366.34055	1371.63757	-1003.15155	411.15195	1216.87549	-889.65271	180.26134	1239.61877	-1139.83752	286.42316	1406.74390	-1221.97388	230.80380	1227.48547	-1224.32983	206.93704	1078.84485	-1252.72888	236.50871	968.92859	-1243.10364	309.08969	848.55017	-1260.97009	251.65634	847.52301	-1272.51514	292.04092	772.94312	-831.43756	316.29495	1396.22522	-725.60437	291.64230	1192.49585	-721.83740	313.56564	1068.53931	-694.03430	374.11569	963.12677	-717.26508	484.56116	876.57471	-677.12238	444.57074	863.96387	-680.50549	503.96692	802.63770	-1095.04822	357.42337	941.24817	-878.06696	373.33597	937.22241	-1032.99634	175.77180	949.05511	-888.74426	186.08943	953.76556	-1169.23340	416.34546	629.57538	-1158.79529	441.86383	497.74661	-1167.66614	352.88046	332.13156	-1121.55994	278.00583	125.76360	-1060.71741	238.54839	101.21685	-1155.71899	400.32108	55.64460	-830.99298	301.26443	604.60284	-861.67841	293.85712	446.41965	-857.57898	229.49716	281.35315	-915.12335	192.78798	79.28126	-966.98053	142.11859	44.35195	-920.51410	332.61234	36.48167	-942.99585	351.39645	1720.94446	-3101.97754	1973.19434	1023.37769	-3140.58081	2012.64661	1022.03033			 
171	1.700	-1034.45215	356.07050	1681.09021	-922.25958	379.00616	1689.25671	-1016.32721	248.80157	1619.15100	-897.15588	270.12158	1626.26465	-970.71857	232.11725	1436.05347	-966.11682	201.70859	1143.12976	-988.41028	375.11105	1371.08643	-1002.89569	419.25436	1216.11975	-889.28546	189.02029	1239.45532	-1139.91931	295.08051	1406.01318	-1221.40637	238.31691	1226.72705	-1223.18970	213.24695	1078.54114	-1251.58618	240.71848	968.17731	-1242.04016	310.97531	846.37927	-1259.54688	253.58676	846.35797	-1271.00269	292.20740	770.87555	-831.46399	325.23990	1396.03967	-725.00543	301.45645	1192.62463	-720.73285	323.91681	1068.74463	-693.30347	386.33804	964.01349	-716.92273	497.89380	879.40625	-676.76477	458.06448	866.00409	-680.14960	518.86371	805.91248	-1094.81482	365.70895	940.97260	-877.71857	381.38254	936.38409	-1033.02795	183.93625	948.92157	-888.92542	194.19766	953.36823	-1169.05005	425.50647	629.69867	-1158.06653	451.81720	498.01511	-1167.24170	370.38208	328.13483	-1121.66663	306.29700	118.01540	-1060.42090	268.72198	91.43520	-1156.86169	431.90594	54.33587	-831.08521	306.31235	604.40808	-861.32135	297.01059	446.22385	-857.59222	231.13536	281.77975	-915.22369	193.22551	79.88435	-966.82654	142.90387	44.68812	-920.49792	332.74280	36.38920	-943.26465	359.73798	1720.63586	-3101.92432	1973.10693	1023.50610	-3140.64868	2012.64380	1022.01624			 
172	1.710	-1034.79504	364.54587	1680.64136	-922.62561	387.43567	1688.92896	-1016.64490	257.40686	1618.50232	-897.45795	278.68839	1625.73718	-970.85468	241.00639	1435.69336	-965.77417	209.69096	1142.92651	-988.52856	383.91653	1370.51733	-1002.71271	427.98764	1215.36621	-889.08636	197.77328	1239.19409	-1140.10669	303.74573	1405.20032	-1221.03479	245.93161	1225.89832	-1222.12354	219.78831	1078.16992	-1250.50549	245.20537	967.37628	-1240.97998	313.23273	844.25189	-1258.49768	255.69849	845.46381	-1269.67908	292.82236	768.93744	-831.70020	334.23877	1395.81567	-724.57281	311.33075	1192.67065	-719.87567	334.20514	1068.79382	-692.72998	397.97525	964.94153	-716.58057	511.07007	882.14783	-676.35309	471.70267	868.23016	-679.82465	533.28210	809.07733	-1094.80322	374.09949	940.63763	-877.58258	389.46423	935.56873	-1033.10510	192.26813	948.64142	-888.92712	202.20064	953.17291	-1169.00476	434.42377	629.69965	-1157.19666	461.33762	497.94141	-1166.98218	387.84631	324.22168	-1121.89258	335.17520	110.96747	-1060.53308	299.00320	82.26535	-1157.58789	463.63278	53.21910	-831.08978	310.98669	604.24780	-861.20258	300.18011	446.08765	-857.50922	232.95656	282.36737	-915.24036	193.27827	80.15466	-966.91144	143.15262	45.92843	-920.38251	332.78891	36.34155	-943.64240	368.09399	1720.26111	-3101.88354	1973.05176	1023.32629	-3140.67651	2012.46997	1021.99896			 
173	1.720	-1035.61133	372.82428	1680.32190	-923.14001	395.77884	1688.51208	-1017.13904	266.04709	1617.76685	-897.86340	287.26428	1625.09631	-971.04889	249.93140	1435.20557	-965.78418	218.45033	1142.49524	-988.71692	392.78873	1369.89417	-1002.70746	436.37686	1214.65735	-889.01697	206.57988	1238.92249	-1140.34155	312.48526	1404.34583	-1220.73584	253.71115	1225.04883	-1221.27271	226.49478	1077.68262	-1249.54810	249.97498	966.59186	-1239.93164	315.84122	842.17108	-1257.34839	258.27054	844.45953	-1268.21521	293.93552	767.13409	-832.02936	343.24643	1395.46387	-724.19440	321.27951	1192.69727	-719.12500	344.43051	1068.77319	-692.08575	409.92926	965.98456	-716.36292	523.94916	884.72900	-676.28491	484.70102	869.80432	-679.68616	547.42828	811.99908	-1094.87878	382.61786	940.21240	-877.38251	397.46051	934.71149	-1033.20093	200.65540	948.29578	-888.94550	210.58395	952.84796	-1169.03467	442.89484	629.37665	-1156.32349	470.48831	497.57907	-1167.05566	405.08569	320.68021	-1122.43298	364.42932	104.42902	-1061.15479	329.44455	74.33767	-1157.82727	495.67697	52.81270	-831.19427	315.87970	604.12134	-861.26172	303.24649	446.05212	-857.34338	234.49779	282.86066	-915.16394	193.55318	80.92533	-966.96893	143.28056	46.63232	-920.28827	332.97418	36.30536	-944.10156	376.47916	1719.79529	-3101.94019	1973.18420	1023.33862	-3140.66162	2012.54797	1021.97302			 
